<svg xmlns="http://www.w3.org/2000/svg" viewBox="0 0 249.93 132.84"><defs><style>.cls-1{font-size:27.07px;font-family:Museo500-Regular, Museo;}</style></defs><title>logo</title><g id="Capa_2" data-name="Capa 2"><g id="Capa_1-2" data-name="Capa 1"><path d="M138.83,0c2,1.67,4.29,3.1,5.82,5.33A20.17,20.17,0,0,0,155.43,13c5,1.65,7.64,5,7.58,10.44a21.06,21.06,0,0,0,4.26,13.06c3.3,4.44,3.23,8.94-.06,13.36A21.33,21.33,0,0,0,163,63c0,5.14-2.36,8.56-7.23,10.17a22.21,22.21,0,0,0-11.53,8.31C141.16,85.74,137,87.1,132,85.38a22.06,22.06,0,0,0-14.22.08C113.12,87,109.11,86,106.2,82a23.87,23.87,0,0,0-12.27-9C89.48,71.55,87,68.32,87,63.66A23.87,23.87,0,0,0,82.36,49.2a9.6,9.6,0,0,1,0-12.08A24,24,0,0,0,87,22.66c0-3.47,1.14-7.13,4.67-8.18C100,12,105,5.52,110.83,0h6c5.66,3.1,11.33,2.56,17,0ZM125.16,69.19c8.57.22,13.86-3.29,15.67-9.63,2.17-7.66.13-12.49-7.1-16.65-4.17-2.41-8.78-4.1-12.34-7.5-4.09-3.9-3.67-9.52.93-12.83,2.76-2,5.88-2.15,9.08-1.71s5.74,2.12,6.21,5.53c.52,3.71-2.21,4.26-5.06,4.62-2.12.28-2.83,1.66-2,3.61.73,1.8,2.09,2.65,4,1.65,3.23-1.71,4.55-4.77,5.12-8.14.53-3.1-.81-5.54-3.37-7.26-4.59-3.09-13.75-1.66-17.5,2.68s-3.62,12.11.34,16.62c2,2.3,4.65,3.73,7.3,5.15a67,67,0,0,1,8.62,5c4.88,3.63,5,9.52.67,13.8-6.33,6.21-19.93,2.45-22.23-6.15-1.29-4.8,1.08-7.35,5.91-6.19,1.78.43,3.45.83,3.79-1.59A3.54,3.54,0,0,0,120.56,46a5.59,5.59,0,0,0-4.31.74,10.6,10.6,0,0,0-3.88,15.08A15.27,15.27,0,0,0,125.16,69.19Z"/><text class="cls-1" transform="translate(0 126.43)">SEBASTIAN OSPINA</text></g></g></svg>